<svg version="1" xmlns="http://www.w3.org/2000/svg" width="2501.333" height="2501.333" viewBox="0 0 1876.000000 1876.000000"><path d="M889.6 25.7c-.1.1-2 .5-4.2.7-2.1.2-5.7.7-8 1.1l-4.1.7 1.5 5.2c3.8 13.9 8.1 31.6 8.7 35.6.3 2.5.8 5.2 1 6 1.2 4.4 2.8 21 2.9 29.5.1 6.9-1 19.4-1.8 20.2-.2.2-3.6-1.7-7.6-4.3-12.8-8.3-33-16.5-46-18.8-1.4-.2-4.1-.7-6-1-1.9-.3-5.3-.9-7.5-1.1-4.7-.6-25.9-.6-29.5-.1-1.4.3-4.6.7-7.2 1.1-11.2 1.4-44 11.6-42.4 13.2.2.3 2.2.9 4.3 1.4 5.6 1.4 5.4 1.4 10.6 3.9 13.4 6.4 26.2 26.4 30.2 46.9.2 1.3.6 3 .9 3.9.3.9.8 3.7 1.1 6.2.3 2.5.8 5.7 1.1 7.1.2 1.5.6 7.2.9 12.8.4 9.4.3 10.2-1.3 9.7-7.6-2.4-17.5-2.6-24.2-.5-13.9 4.5-27.3 17.7-35.7 35.2-2.7 5.5-3 4.7 5.2 13.6 6.9 7.4 15.5 15.4 18.2 17 .9.5.1 3.4-3.2 11.1-7.8 18.6-11 35.2-10.9 57.5.1 10.2 1.1 27.5 1.9 29.8.2.6.6 3.4.9 6.2.9 7.4 1.4 10.7 2.6 17.7 1.6 8.8 3.5 20.2 5.5 32.3.1 1.1.6 3.6.9 5.5.8 4.9 2.1 13.9 3.1 22 2.5 19.8 2.5 62.4 0 71-.3.8-.7 3.1-.9 5-3.8 28.7-16.9 64.9-31.7 87.6-8.8 13.6-21.6 28.3-28.6 33.1-5.1 3.4-1.2 9.8 7.5 12.7 5.9 2 14.9 3.3 23.7 3.5l4 .1-3.1 3c-7.9 7.3-13.7 16.3-18 27.6-4.5 12.1-5.9 20.4-5.9 36.9 0 17.7.9 23.6 7.8 49.5 1.4 5.2 2.8 11.3 3.2 13.5.3 2.2.7 5.1 1 6.5.2 1.4.6 5.2 1 8.5.3 3.3.8 7.1 1 8.5.2 1.4.6 6.1 1 10.5.3 4.4 1.3 12.7 2.1 18.5 3.5 25 8 37.8 16.8 47 4.3 4.5 7.6 6.6 15.5 9.5 4.9 1.8 5.4 2.3 5.7 5.5 1 10 1.6 14.1 3.5 21.9 2.1 8.6 7.5 23 10.6 27.9 6.3 10.4 11.8 17.6 18 23.9l7.3 7.3-16.8 8.1c-20 9.8-40.9 19.8-59.2 28.6-7.4 3.5-14 7-14.5 7.7-.6.7-6.1 3.8-12.3 6.9-6.2 3-11.8 5.9-12.5 6.5-.7.5-3.9 1.9-7.1 3.1-3.3 1.2-8.2 3.2-11 4.5-2.8 1.3-8.5 3.8-12.6 5.6-4.1 1.8-13.8 6.2-21.5 9.8-7.7 3.5-16.7 7.7-20 9.2-20.7 9.6-82.6 40.2-106.1 52.5-15.6 8.2-57.2 30.7-63.3 34.3l-4.4 2.6.7-4.6c1.8-12.2 2.6-14.8 7.3-24.5 8.5-17.3 25.7-35.8 63.3-68.2 22.7-19.6 28.7-26.3 37.2-42.2 5-9.4 13.9-33.5 15.4-41.9.2-.8 1.1-5.3 2-10 2.5-12 2.6-33.1.1-38.2-1-2-2.2-4-2.7-4.3-2.7-1.7-17.4-25.5-26.5-42.8-2.9-5.6-5.8-9.8-6.8-10.1-4.4-1.1-13.4.1-19.1 2.7-7.3 3.4-16.3 12.4-20.2 20.2-5.7 11.8-4.1 28.3 4.6 45.1l4.7 9.3-4.1 4.5c-13.5 14.8-33.1 13.8-37.1-2-3.8-15.1 5.2-53.5 16.4-69.8 5.2-7.4 8.3-9.1 17.8-9.2 6.8-.1 8.9-.5 12.5-2.7 10.8-6.3 13.2-18.3 5.5-26.6-6.6-7-22.9-12-37.7-11.5-17.9.5-33.8 10.6-46.5 29.5-5.3 7.9-13.1 24.4-14.2 29.9-1.7 9.2-2.5-9.3-.9-22 1.8-13.6 9.2-42.5 13.5-52.5.5-1.1 3.2-7.6 5.9-14.5 2.8-6.9 7.1-17 9.5-22.5 11.1-25.4 15.3-54 10.1-68.5-3.8-10.5-12.6-17-23.2-17-11.3 0-19.7 8.1-30.5 29.5-11.4 22.4-26.6 69-35.2 107.5-.2.8-1.1 4.6-2 8.5-.9 3.8-1.8 7.7-2 8.5-.2.8-.6 2.6-.9 4-.3 1.4-.8 3.8-1.1 5.5-.4 1.6-.7 3.4-.9 4-.2.5-.7 2.9-1.1 5.3-1 5.4-2.1 4-1.9-2.5.4-12.8 1.5-39.1 1.9-41.8.2-1.7.6-7.1 1-12 .3-5 .8-9.7 1-10.5.2-.8.7-4 1-7 .3-3 .8-6.2 1-7 .2-.8.7-3.5 1-6 .3-2.5.8-5.3 1.1-6.2.3-.9.6-2.5.8-3.5.2-1 .9-3.6 1.4-5.8 2-7.4 2.7-13.9 2.7-25-.1-12.7-.6-17-3.5-25.5-4.4-13-10.5-19.1-19.8-19.8-6.9-.4-11.8 1.9-19.1 9.1-10.1 9.9-19.5 35.8-25.6 70.2-.2 1.6-.7 3.9-.9 5-.2 1.1-.7 4.2-1 7-.4 2.7-.9 5.7-1.1 6.5-.2.8-.7 4.2-1 7.5-.4 3.2-.8 6.2-1 6.5-.1.3-.6 3.9-.9 8.1-.4 4.2-.9 8.7-1.1 10-.2 1.3-.7 5.8-1 9.9-.3 4.1-.8 9.1-1 11-.2 1.9-.6 8.2-1 14-.3 5.7-.8 10.6-1 10.8-.7.7-3.2-6.2-5.3-14.5-2.2-8.6-4.6-23.1-6.7-40.8-.4-2.8-.8-6.1-1-7.5-.2-1.4-.7-5.2-1.1-8.5-.3-3.3-.8-6.9-1-8-.2-1.1-.7-4-1-6.5-.8-6-4.9-21.8-6.9-26.7-5.8-13.9-16.9-19-28.4-13.1-6.1 3.2-13.2 12.2-17.2 21.6-1.7 4.1-3.2 8.2-3.4 9.1-.2.9-.8 3.7-1.4 6.4-.6 2.6-1.3 6.2-1.6 8-.2 1.7-.7 5-1 7.2-.7 4.4-.8 28.8-.1 32 .2 1.1.7 5.1 1.2 9 .4 3.8.8 7.2.9 7.5.1.3.5 2.5.9 5 1.6 9.1 5.9 24.8 11.1 40.4 7 21.2 14 46.1 14.6 52.1 0 .2.5 1.9 1 3.7.5 1.8 1.2 4.6 1.5 6.3.2 1.6 1.1 6.6 1.9 11 4.5 25.6 5.9 42.4 6 72 0 18.8-.6 32.9-2 43.5-2.2 18.2-2.1 17.8-11.2 41-19.1 48.8-16.8 44-23.1 48.9-9.7 7.6-26.5 27.3-37.3 43.6-4.8 7.3-9.9 15.5-9.9 16.1 0 .3-.8 1.8-1.9 3.2-1 1.5-4.6 8.3-8 15.2-3.4 6.9-6.6 13.3-7.2 14.3-4 7.3-21.9 55.4-24.4 65.7-.2.8-2.2 8-4.5 16-2.2 8-4.2 15.4-4.4 16.5-.2 1.1-1.1 5-2 8.6-.8 3.7-1.7 7.8-2 9-.2 1.3-.7 3.5-1 4.9-.3 1.4-.8 3.7-1 5.3-.3 1.5-.7 3.5-1 4.5-.3.9-.7 3.3-1 5.2-.3 1.9-.8 4.5-1 5.6-.2 1.2-.7 3.9-1 6-.4 2.2-.8 4.6-1.1 5.4-.2.8-.6 3.6-.9 6.2-.3 2.6-1.1 7.8-1.7 11.5-.6 3.7-1.3 8.4-1.5 10.3-.4 3.4-1.1 9.3-1.9 15.3-.3 1.6-.7 5.7-1 9.2-.2 3.5-.7 7.8-1 9.6-.2 1.9-.7 6.1-.9 9.4-.3 3.3-.7 9.6-1.1 14-.3 4.4-.8 10.5-1 13.5-2.6 30.9-2.5 133.9 0 163.2.3 3.2 1.7 9.4 3.1 13.8 11.8 37.5 40.6 66.7 81.9 83.2 4.4 1.8 13 4.7 16 5.4 19.1 4.6 25.8 5.5 42.5 5.9 35.2.7 64.4-7.3 93.6-25.6l9.2-5.7 196.8-.3c108.3-.2 272.3-.3 364.5-.1l167.6.2 4.9 9.7 4.9 9.8 15.1 12c8.4 6.6 22.4 17.6 31.3 24.5 8.9 6.9 17.4 13.5 18.9 14.8 1.5 1.2 9.7 7.6 18.2 14.2l15.4 12 5.1-4.8c2.7-2.7 10.4-10.1 17-16.4 6.6-6.4 15.4-14.8 19.5-18.8 51.3-49.3 56-54 56-55.7 0-1 24-1.3 118.8-1.4 131.7-.2 265.4-.7 278.7-1 13.7-.3 25.6-3.4 37.4-9.6 8.2-4.3 13.2-8.2 20.6-15.9 7.4-7.8 7.3-7.6 11.8-14.9 5.5-9 9.3-20.1 11.2-32 .3-2.2 1-6.7 1.5-10s1.2-7.8 1.4-10c.3-2.2.8-5.8 1.1-8 1-6.9 1.4-9.8 2-16 .3-3.3.8-6.9 1-8 .2-1.1.7-5.2 1-9 .4-3.9.8-8.1 1.1-9.5.2-1.4.6-6.3 1-11 .3-4.7.7-9.9 1-11.5.2-1.7.6-7.7 1-13.5.3-5.8.7-11.9.9-13.5 1.7-14.4 2.4-82.4 1.1-108-1-20.6-2.3-40.5-3.1-45.8-.2-1.8-.7-6.1-1-9.6-.3-3.6-.8-7.9-1-9.5-.2-1.7-.7-5.4-1-8.1-.7-5.5-.8-6.3-3-21-.8-5.5-1.7-11.1-2-12.5-.3-1.4-.7-3.9-1-5.5-.3-1.7-.8-4.1-1-5.5-.3-1.4-.7-3.6-1-5-.3-1.4-.7-3.6-1-5-.3-1.4-.7-3.6-1-5-2.1-11.9-12.1-47.7-18.5-66.5-11.6-33.7-28.1-68.7-44-93-2.2-3.3-4.3-6.7-4.7-7.5-.4-.8-1.1-2-1.5-2.5-.5-.6-3.4-4.6-6.5-9-3.2-4.4-6-8.2-6.3-8.5-.3-.3-3-3.7-6-7.5-14.1-18-38.1-41.6-55.7-54.7-3.2-2.4-6.4-4.8-7.1-5.5-1.3-1.3-14-10.1-17-11.8-.9-.6-5.5-3.3-10.2-6.1-17-10.2-39.6-21.1-56.7-27.3l-6.2-2.3 6.1-17.6c3.3-9.8 6.7-18.9 7.4-20.5.8-1.5 1.2-2.7.8-2.7-.4 0-.2-.6.3-1.2.6-.7 1.5-2.7 2.1-4.5.6-1.7 6.9-17.2 14-34.5 12.1-29.1 14.3-34.5 14.7-35.8.1-.3.5-1.7.9-3.2.7-2.5 1-2.6 7.4-2.4 17.1.7 28.7-6.1 36-20.9 3-6.1 6.6-17.7 7.7-25 1.5-10 2.4-17.5 3-24 .4-3.9.8-9 1.1-11.5.2-2.5.6-7.2.9-10.5.5-5.4 1.8-15.8 3.1-24 .3-1.7 1.6-7.1 2.9-12 1.3-5 2.6-10.2 2.9-11.8 3.4-19.2 3.6-21.5 3.6-34.2-.1-13.5-.4-17.2-2.5-26-2.1-9.4-5.8-19-10-26-1.9-3.2-3.5-6-3.5-6.4 0-.3 2.3-3.1 5.1-6.1 8-8.7 11.4-13.1 14.9-19.2 7.6-13.7 8.8-27.7 3.1-39.2-1.8-3.8-3.2-8.4-3.5-12.1-.7-7.1-1.5-14.8-2.1-19-.2-1.7-.7-5.7-1-9-.3-3.3-.8-7.4-1-9-.9-7.1-1.5-12.3-2-16.8-.3-2.6-.8-6.8-1.1-9.4-.7-5.4-1-7.3-2-16.3-1.6-12.7-.9-59.5 1-69.5.2-1.1.7-5.1 1.1-8.8.3-3.7.8-7.7 1-8.9.3-1.1.7-4.6 1.1-7.7.3-3.1.8-5.8.9-6.1.2-.3.6-3 1-6 .3-3 .8-6.2 1-7 .2-.8.7-4 1-7 .3-3 .8-6.2 1-7 .2-.8.7-4 1.1-7 .3-3 .9-7.7 1.3-10.4l.6-4.9 9-5.4c22.5-13.7 40.3-29 54.5-47 3-3.7 8.7-13.6 11.4-19.7 11.2-24.7 10.3-50.2-2.7-76.1-8.3-16.7-25.4-35.7-42.2-47.1-7.5-5.1-28.8-17.4-30.2-17.4-.2 0-3.8-1.6-7.9-3.5-4.1-1.9-8-3.5-8.7-3.5-.7 0-1.7-.4-2.3-.8-3.4-2.9-35.8-13.1-70.4-22.2-3.9-1-25.4-6-28.5-6.6-1.1-.2-2.9-.6-4-.9-2.6-.6-65-13.3-68.4-13.9-1.4-.2-5.1-.9-8.1-1.6-3-.6-6.8-1.3-8.5-1.6-1.6-.2-7-1.3-12-2.4-4.9-1-10.1-2.1-11.5-2.4-1.4-.2-5.7-1.1-9.5-2-3.9-.8-8.2-1.7-9.5-2-1.4-.2-7-1.4-12.5-2.6-5.5-1.2-10.9-2.3-12-2.5-1.1-.3-11-2.7-22-5.5s-20.7-5.3-21.5-5.5c-7.5-1.8-30-8.8-45.5-14.1-10.4-3.6-19.7-6.7-20.5-6.9-.8-.2-4-1.1-7-2-13.7-4-29.4-7.4-41-9-2.5-.3-5.6-.8-7-1-11.1-1.7-40.7-2.3-52-1.1-3 .4-7.7.9-10.5 1.2-4.4.4-18.9 2.9-23.7 4-1 .2-2.7.6-3.8.8-14.3 3.2-30.9 8.8-56 18.8-23.8 9.6-30.7 11.8-36.2 12-7.6.1-9.9-1.4-16.4-11-6.8-10-16.7-20.2-24.9-25.7-11.9-7.8-29-14.2-43.5-16.1-5.4-.7-27.8-1.3-28.4-.7z"/></svg>